<?xml version="1.0" encoding="UTF-8" standalone="no"?>
<svg
   xmlns:dc="http://purl.org/dc/elements/1.1/"
   xmlns:cc="http://creativecommons.org/ns#"
   xmlns:rdf="http://www.w3.org/1999/02/22-rdf-syntax-ns#"
   xmlns:svg="http://www.w3.org/2000/svg"
   xmlns="http://www.w3.org/2000/svg"
   viewBox="0 0 1920 1080"
   height="1080"
   width="1920"
   xml:space="preserve"
   id="svg2"
   version="1.1"><metadata
     id="metadata8"><rdf:RDF><cc:Work
         rdf:about=""><dc:format>image/svg+xml</dc:format><dc:type
           rdf:resource="http://purl.org/dc/dcmitype/StillImage" /></cc:Work></rdf:RDF></metadata><defs
     id="defs6"><clipPath
       id="clipPath14"
       clipPathUnits="userSpaceOnUse"><path
         id="path12"
         d="M 0,7.920007 H 1440 V 817.92 H 0 Z" /></clipPath><clipPath
       id="clipPath24"
       clipPathUnits="userSpaceOnUse"><path
         style="clip-rule:evenodd"
         id="path22"
         d="M 0,0 H 6000 V 3406.25 H 0 Z" /></clipPath><clipPath
       id="clipPath36"
       clipPathUnits="userSpaceOnUse"><path
         style="clip-rule:evenodd"
         id="path34"
         d="m 3222.3889,1476.9268 h 959.2151 v 421.1704 h -959.2151 z" /></clipPath><clipPath
       id="clipPath48"
       clipPathUnits="userSpaceOnUse"><path
         style="clip-rule:evenodd"
         id="path46"
         d="m 3222.3889,1621.7683 h 46.0422 v 276.3289 h -46.0422 z" /></clipPath><clipPath
       id="clipPath60"
       clipPathUnits="userSpaceOnUse"><path
         style="clip-rule:evenodd"
         id="path58"
         d="m 3376.8225,1620.8091 h 92.0847 v 277.2881 h -92.0847 z" /></clipPath><clipPath
       id="clipPath72"
       clipPathUnits="userSpaceOnUse"><path
         style="clip-rule:evenodd"
         id="path70"
         d="m 3818.0615,1689.8726 h 62.3491 v 208.2246 h -62.3491 z" /></clipPath><clipPath
       id="clipPath84"
       clipPathUnits="userSpaceOnUse"><path
         style="clip-rule:evenodd"
         id="path82"
         d="m 4119.2549,1621.7683 h 62.3491 v 276.3289 h -62.3491 z" /></clipPath><clipPath
       id="clipPath96"
       clipPathUnits="userSpaceOnUse"><path
         style="clip-rule:evenodd"
         id="path94"
         d="m 3650.199,1685.0764 h 62.3489 v 213.0207 h -62.3489 z" /></clipPath><clipPath
       id="clipPath108"
       clipPathUnits="userSpaceOnUse"><path
         style="clip-rule:evenodd"
         id="path106"
         d="m 3896.7173,1621.7683 h 102.636 v 276.3289 h -102.636 z" /></clipPath><clipPath
       id="clipPath120"
       clipPathUnits="userSpaceOnUse"><path
         style="clip-rule:evenodd"
         id="path118"
         d="m 3550.4404,1592.0326 h 63.3083 v 306.0646 h -63.3083 z" /></clipPath><clipPath
       id="clipPath132"
       clipPathUnits="userSpaceOnUse"><path
         style="clip-rule:evenodd"
         id="path130"
         d="m 3222.3889,1666.8513 h 959.2151 v 231.2459 h -959.2151 z" /></clipPath><clipPath
       id="clipPath144"
       clipPathUnits="userSpaceOnUse"><path
         style="clip-rule:evenodd"
         id="path142"
         d="m 3222.0161,1476.9268 h 962.5 v 421.875 h -962.5 z" /></clipPath><clipPath
       id="clipPath156"
       clipPathUnits="userSpaceOnUse"><path
         style="clip-rule:evenodd"
         id="path154"
         d="m 3222.3889,1572.8483 h 959.2151 v 325.2489 h -959.2151 z" /></clipPath><clipPath
       id="clipPath168"
       clipPathUnits="userSpaceOnUse"><path
         style="clip-rule:evenodd"
         id="path166"
         d="m 1815.0503,1539.5817 h 962.5 v 171.875 h -962.5 z" /></clipPath></defs><g
     clip-path="url(#clipPath14)"
     transform="matrix(1.3333333,0,0,-1.3333333,0,1090.56)"
     id="g10"><g
       transform="matrix(0.23999999,0,0,-0.23999999,0,817.91998)"
       id="g16"><g
         id="g18"><g
           clip-path="url(#clipPath24)"
           id="g20"><g
             transform="scale(3.125)"
             id="g26"><path
               id="path28"
               style="fill:#ffffff;fill-opacity:1;fill-rule:nonzero;stroke:none"
               d="M 0,0 H 1920 V 1080 H 0 Z" /></g></g></g><g
         id="g30"><g
           clip-path="url(#clipPath36)"
           id="g32"><g
             transform="matrix(0.95921522,0,0,0.95921522,3222.3889,1476.9268)"
             id="g38"><path
               id="path40"
               style="fill:#0a1640;fill-opacity:1;fill-rule:nonzero;stroke:none"
               d="m 997.76563,212.33984 v -48.41015 c -4.56641,0 -8.26954,-3.70313 -8.26954,-8.27344 v -4.07813 c -2.23437,0 -4.05078,-1.8125 -4.05078,-4.05078 v -10.08593 h 3.97657 v -5.40235 h -1.55079 v -4.6914 h -1.375 L 974.26172,117.14453 V 86.496094 h -1.10156 V 71.859375 h -0.89453 V 61.019531 h -1.17188 v 10.839844 h -0.89844 v 14.636719 h -1.09765 v 30.648436 l -12.23438,10.20313 h -1.3789 v 4.6914 h -1.55079 v 5.40235 h 3.97657 v 10.08593 c 0,2.23828 -1.8125,4.05078 -4.05078,4.05078 v 4.07813 c 0,2.98047 -1.57813,5.58203 -3.94141,7.03906 v -6.95703 h -7.53906 v -11.78125 h -33.58594 v 11.78125 H 901.25 v 47.35547 h -25.34375 v 17.13672 H 852.14063 V 129.23828 H 841.88281 V 79.21875 h -8.0039 V 48.269531 h -11.4336 V 79.21875 h -8.0039 v 50.01953 H 804.18359 V 264.56641 H 765.125 v -90.17969 h -33.39844 v -63.58984 l -11.43359,13.60156 v 17.34765 H 704.28516 V 157.25 h -24.98047 v -47.35547 h -7.53906 V 98.113281 H 653.10938 V 0.00390625 L 625.66797,30.953125 v 29.503906 c 0,11.328125 -9.18359,20.515625 -20.51172,20.515625 v 85.523434 h -19.27344 v -5.48047 h -8.55078 V 120.99219 H 567.07422 V 70.972656 h -8.00391 V 40.023438 L 547.63672,53.625 v 17.347656 h -8.00391 V 120.99219 H 529.375 v 92.3125 H 509.30859 V 151.51953 H 499.05078 V 136.19922 H 482.30469 V 92.363281 h -2.27735 V 62.035156 h -1.86328 V 39.574219 h -2.42187 v 22.460937 h -1.86328 v 30.328125 h -2.27735 v 43.835939 h -16.74609 v 15.32031 h -10.25781 v 50.03516 h -2.70313 v -32.46485 h -5.17187 v -8.07422 h -23.02735 v 5.48047 h -28.68359 v 23.30469 h -16.07031 v -79.90625 h -7.53907 V 98.113281 h -33.58593 v 11.781249 h -7.54297 V 157.25 h -25.33985 v 17.13672 h -60.48046 v 90.17969 h -3.46094 V 95.117188 h -10.25781 v -9.71875 H 187.0625 v 9.71875 H 166.28125 V 220.23047 h -17.85547 v -90.99219 h -18.69922 l -25.23047,-20.17578 -20.781246,9.71484 v 25.17969 h -18.5 V 56.335938 L 23.976563,81.390625 V 123.92969 L 2.230469,109.0625 V 212.33984 H 0 V 439.07813 H 999.57813 V 212.33984 h -1.8125" /></g></g></g><g
         id="g42"><g
           clip-path="url(#clipPath48)"
           id="g44"><g
             transform="matrix(0.95921522,0,0,0.95921522,3222.3889,1476.9268)"
             id="g50"><path
               id="path52"
               style="fill:#ffffff;fill-opacity:1;fill-rule:nonzero;stroke:none"
               d="M 37.699219,182.51563 H 29.695313 V 151.56641 H 18.261719 v 30.94922 h -8.003906 v 50.01562 H 0 V 439.07813 H 47.957031 V 232.53125 H 37.699219 v -50.01562" /></g></g></g><g
         id="g54"><g
           clip-path="url(#clipPath60)"
           id="g56"><g
             transform="matrix(0.95921522,0,0,0.95921522,3222.3889,1476.9268)"
             id="g62"><path
               id="path64"
               style="fill:#ffffff;fill-opacity:1;fill-rule:nonzero;stroke:none"
               d="m 244.98438,185.49609 h -9.02735 v -19.5664 L 223.0625,150.58984 v 34.90625 h -9.02734 v 56.41407 h -11.57032 v 21.16015 C 194.50391,260.25 188.78906,252.67578 188.78906,243.74609 v -29.5039 l -27.4414,-30.94922 v 255.78516 h 95.20312 V 241.91016 h -11.5664 v -56.41407" /></g></g></g><g
         id="g66"><g
           clip-path="url(#clipPath72)"
           id="g68"><g
             transform="matrix(0.95921522,0,0,0.95921522,3222.3889,1476.9268)"
             id="g74"><path
               id="path76"
               style="fill:#ffffff;fill-opacity:1;fill-rule:nonzero;stroke:none"
               d="m 665.07813,222.81641 h -33.67188 v 9.71484 h -10.25781 v 206.54688 h 64.71094 V 232.53125 h -20.78125 v -9.71484" /></g></g></g><g
         id="g78"><g
           clip-path="url(#clipPath84)"
           id="g80"><g
             transform="matrix(0.95921522,0,0,0.95921522,3222.3889,1476.9268)"
             id="g86"><path
               id="path88"
               style="fill:#ffffff;fill-opacity:1;fill-rule:nonzero;stroke:none"
               d="m 957.53516,180.60156 v 70.50782 l -22.2461,15.21093 V 439.07813 H 1000 V 151.56641 l -42.46484,29.03515" /></g></g></g><g
         id="g90"><g
           clip-path="url(#clipPath96)"
           id="g92"><g
             transform="matrix(0.95921522,0,0,0.95921522,3222.3889,1476.9268)"
             id="g98"><path
               id="path100"
               style="fill:#ffffff;fill-opacity:1;fill-rule:nonzero;stroke:none"
               d="m 500.68359,222.27734 v -5.0625 h -44.19921 v 5.0625 c 0,5.66407 -4.59375,10.25391 -10.25782,10.25391 V 439.07813 H 510.9375 V 232.53125 c -5.66406,0 -10.25391,-4.58984 -10.25391,-10.25391" /></g></g></g><g
         id="g102"><g
           clip-path="url(#clipPath108)"
           id="g104"><g
             transform="matrix(0.95921522,0,0,0.95921522,3222.3889,1476.9268)"
             id="g110"><path
               id="path112"
               style="fill:#ffffff;fill-opacity:1;fill-rule:nonzero;stroke:none"
               d="m 788.66016,182.51563 h -16.00782 v -17.35157 l -11.43359,-13.59765 v 67.13672 l -13.57422,-6.34766 -25.23047,20.17578 H 703.71484 V 439.07813 H 809.17578 V 232.53125 h -20.51562 v -50.01562" /></g></g></g><g
         id="g114"><g
           clip-path="url(#clipPath120)"
           id="g116"><g
             transform="matrix(0.95921522,0,0,0.95921522,3222.3889,1476.9268)"
             id="g122"><path
               id="path124"
               style="fill:#ffffff;fill-opacity:1;fill-rule:nonzero;stroke:none"
               d="m 397.28516,217.21484 h -16.7461 v -43.83593 h -2.27734 v -30.32813 h -1.86328 v -22.46094 h -2.42188 v 22.46094 h -1.86328 v 30.32813 h -2.27734 v 43.83593 h -16.7461 v 15.31641 h -10.25781 v 206.54688 h 64.71094 V 232.53125 h -10.25781 v -15.31641" /></g></g></g><g
         id="g126"><g
           clip-path="url(#clipPath132)"
           id="g128"><g
             transform="matrix(0.95921522,0,0,0.95921522,3222.3889,1476.9268)"
             id="g134"><path
               id="path136"
               style="fill:#ffffff;fill-opacity:1;fill-rule:nonzero;stroke:none"
               d="m 965.98438,312.36719 v 23.30469 h -16.06641 v -79.90625 h -7.53906 v -11.78516 h -33.58594 v 11.78516 H 901.25 v 47.35156 h -25.34375 v 17.14062 h -60.47656 v 44.33594 H 765.125 v -90.18359 h -60.47656 v -17.13672 h -25.34375 v -47.35547 h -7.53906 v -11.78125 h -33.58985 v 11.78125 h -7.53906 v 79.91016 h -16.06641 v -23.3086 h -28.6875 v -5.48047 h -23.02734 v 8.07813 h -5.16797 v 32.46484 h -17.375 v 11.7461 h -81.04687 v -11.7461 h -17.3711 v -32.46484 h -5.17187 v -8.07813 h -23.02735 v 5.48047 h -28.68359 v 23.3086 h -16.07031 v -79.91016 h -7.53907 v -11.78125 h -33.58593 v 11.78125 h -7.54297 v 47.35547 h -25.33985 v 17.13672 h -60.48046 v 90.18359 H 184.14844 V 320.25781 H 123.67187 V 303.11719 H 98.328125 V 255.76563 H 90.789063 V 243.98047 H 57.203125 v 11.78516 h -7.542969 v 79.90625 H 33.59375 V 312.36719 H 0 V 439.07813 H 999.57813 V 312.36719 h -33.59375" /></g></g></g><g
         id="g138"><g
           clip-path="url(#clipPath144)"
           id="g140"><g
             transform="matrix(0.95921522,0,0,0.95921522,3222.3889,1476.9268)"
             id="g146"><path
               id="path148"
               style="fill:#ffffff;fill-opacity:1;fill-rule:nonzero;stroke:none"
               d="m 870.07031,180.92188 v -15.32032 h -16.74609 v -43.83593 h -2.27734 V 91.4375 H 849.1875 V 68.976563 h -2.42578 V 91.4375 h -1.86328 v 30.32813 h -2.27735 v 43.83593 H 825.875 v 15.32032 h -10.25781 v 174.8164 h 64.71094 v -174.8164 h -10.25782" /></g></g></g><g
         id="g150"><g
           clip-path="url(#clipPath156)"
           id="g152"><g
             transform="matrix(0.95921522,0,0,0.95921522,3222.3889,1476.9268)"
             id="g158"><path
               id="path160"
               style="fill:#ffffff;fill-opacity:1;fill-rule:nonzero;stroke:none"
               d="m 1000,353.25781 h -34.01562 v 23.3086 h -16.06641 v -79.91016 h -7.53906 V 284.875 h -33.58594 v 11.78125 H 901.25 v 47.35547 h -25.34375 v 17.13672 H 860.61719 V 246.41406 l -64.71094,44.25 V 405.48438 H 765.125 V 315.30469 H 704.64844 V 298.16797 H 679.30469 V 250.8125 h -7.53906 v -11.78125 h -33.58985 v 11.78125 h -7.53906 v 79.90625 h -16.06641 v -23.30469 h -28.6875 v -5.48437 h -10.23437 v -46.06641 c -5.66406,0 -10.25391,-4.59375 -10.25391,-10.25781 v -5.05859 c -2.77734,0 -5.02344,-2.25 -5.02344,-5.02344 v -12.51172 h 4.92969 v -6.69531 h -1.92187 v -5.82422 h -1.71094 l -15.17188,-12.65235 v -38.00781 h -1.36328 v -18.15234 h -1.11328 v -13.44532 h -1.45312 v 13.44532 h -1.11328 v 18.15234 h -1.36329 v 38.00781 l -15.17187,12.65235 h -1.70703 v 5.82422 h -1.92188 v 6.69531 h 4.92969 v 12.51172 c 0,2.77344 -2.25,5.02344 -5.02344,5.02344 v 5.05859 c 0,5.66406 -4.59375,10.25781 -10.25781,10.25781 v 98.35938 h -53.30078 v -11.75 h -17.375 v -32.46485 h -5.16797 v -8.07812 h -23.02734 v 5.48437 h -27.05469 v 23.30469 H 368.94141 V 250.8125 h -7.53907 v -11.78125 h -33.58593 v 11.78125 h -7.54297 v 47.35547 h -25.33985 v 17.13672 h -25.80468 v 20.76953 h -35.91797 v -42.08594 h -17.375 v -32.46484 h -5.16797 v -8.07813 h -23.02734 v 8.07813 h -5.16797 v 54.78125 h -11.01563 v -15.97656 h -10.10937 v -87.67969 h -10.25782 v -15.32031 h -16.74609 v -43.83594 h -2.28125 v -30.32813 h -1.85938 v -22.46093 h -2.42578 v 22.46093 h -1.85937 v 30.32813 h -2.27734 v 43.83594 h -16.75 v 15.32031 H 96.636719 v 84.00781 H 90.789063 V 284.875 H 57.203125 v 11.78125 h -7.542969 v 79.91016 H 33.59375 v -23.3086 H 0 v 85.82032 h 1000 v -85.82032" /></g></g></g><g
         id="g162"><g
           clip-path="url(#clipPath168)"
           id="g164"><g
             transform="matrix(0.37553057,0,0,0.37347892,1815.1893,1524.4932)"
             id="g170"><path
               id="path172"
               style="fill:#ffffff;fill-opacity:1;fill-rule:nonzero;stroke:none"
               d="m 683.97998,40.873001 c 1.21399,-0.150001 2.427,-0.313 3.65399,-0.474998 0.038,14.100998 0.138,28.202003 0.025,42.291 -0.36298,4.991997 1.36401,9.809998 1.414,14.738998 -1.46399,6.856999 -1.62702,13.863999 -1.00098,20.819999 5.54303,0.213 10.91101,1.627 16.29102,2.878 0.388,2.815 0.651,5.63 0.96301,8.458 2.51501,1.201 5.03003,2.377 7.54498,3.616 1.15198,21.29499 -3.17102,233.72999 3.41602,254.05 3.61603,9.935 1.35101,20.70801 1.73901,31.03 1.57703,-0.012 3.16602,-0.025 4.76703,-0.038 0.72302,-11.94101 3.67297,0.474 3.44098,-47.04599 3.328,-0.31298 6.65601,-0.60101 9.99701,-0.93798 0.263,-2.25202 0.56299,-4.49201 0.901,-6.719 3.328,0.05 6.65601,0.063 9.99701,0.05 0.92602,4.20401 3.86603,7.10699 8.07001,8.008 0.375,10.37298 -0.23798,20.75799 0.41302,31.13 0.83801,-0.013 2.53998,-0.038 3.37799,-0.063 -0.038,-27.94 0,-55.879 0.25,-83.819 13.651,-0.57599 27.33899,-0.488 40.98999,0.18799 0.50403,23.92099 -2.30401,23.077 6.16901,28.12701 1.92798,-147.94 -4.90698,-115.08999 9.98498,-127.58999 0.98798,-10.92301 -0.73797,-21.97101 0.57599,-32.88201 1.914,-4.479 4.90503,-8.47099 6.65601,-13.063 1.32599,2.515 2.64001,5.05499 3.979,7.582 7.43201,-0.25 14.86499,-0.088 22.297,0.05 0.17499,2.10201 0.34998,4.217 0.53802,6.319 1.07599,-0.013 2.16498,-0.025 3.253,-0.038 0.34997,-2.215 0.72601,-4.429 1.13897,-6.644 1.789,-0.025 3.60401,-0.038 5.41803,-0.075 0.78498,13.888 -0.46502,80.175 0.23798,107.66001 3.27801,0.088 6.56903,0.05 9.85998,-0.012 0.16303,22.63501 -0.57599,45.28201 0.32502,67.89099 3.94097,0.063 7.88299,0 11.83697,-0.063 0.16303,4.07901 0.29999,8.15799 0.45001,12.237 3.41602,0.125 6.844,0.17499 10.27301,0.22501 -4.37298,-13.87701 -0.22302,-1.439 -2.36499,-68.367 1.789,-28.92801 -1.151,-57.956 0.68799,-86.847 18.80597,-0.30001 37.62402,-0.075 56.44299,-0.23801 1.41401,17.517 -0.56298,35.07201 0.125,52.601 5.28003,0.60101 10.26001,-1.22602 15.32703,-2.30201 22.45099,5.094 17.107,1.775 17.24201,26.939 9.04602,-0.263 18.10498,-0.21301 27.13902,0.42499 0.075,1.86401 0.175,3.729 0.275,5.59299 11.588,7.708 5.452,5.67001 17.5421,6.76901 0.165,50.53 -1.4521,51.988 2.915,52.68899 0.926,-24.89898 -0.25,-49.836 0.338,-74.73498 8.921,-1.12601 16.917,-6.068 25.85,-6.86899 10.147,2.10199 20.52,1.43899 30.805,1.577 0.45,20.833 -0.275,41.678 0.4251,62.49798 7.045,-1.17401 0.324,-91.478 3.253,-117.19 1,-0.23801 26.419,-6.308 29.4411,-8.33301 1.3509,-2.45199 2.302,-5.09199 3.428,-7.657 1.3509,1.914 2.7149,3.816 4.1169,5.71801 15.4399,-1.37601 30.8929,-0.213 46.358,-0.063 0.876,34.146 -0.375,68.342 0.3001,102.49001 4.041,0.16299 8.095,0.263 12.149,0.46301 0.2381,2.39001 0.475,4.79199 0.7381,7.19501 9.3719,0.238 18.756,0.28799 28.14,0.012 -0.025,-8.43301 -0.538,-16.866 0.075,-25.28699 6.031,0.11301 12.0871,0.21302 18.13,-0.17498 0.1131,-6.469 -0.5379,-13.06299 1.1141,-19.39402 1.9019,-7.23199 1.602,-14.91501 4.041,-22.03399 2.677,-4.978 2.634,0.119 13.063,-25.92501 2.5649,-5.94299 1.339,-12.6 2.74,-18.793 0.801,-3.528 1.452,-7.082 1.952,-10.673 1.964,2.59 3.141,5.64301 2.865,8.946 -1.038,19.649 10.297,35.187 14.7769,44.543 4.5551,15.16699 3.8101,11.14599 3.679,93.31601 2.528,0.025 5.068,0.038 7.6331,0.038 0.3499,-24.724 0.3249,-49.448 0.3129,-74.17199 -0.1629,-5.07999 2.277,-9.77201 2.402,-14.827 0.1751,-4.892 -0.213,-9.897 1.239,-14.65201 2.265,-7.044 1.189,-14.51401 1.714,-21.759 -0.1,-3.078 2.715,-4.955 4.192,-7.357 3.466,-4.567 2.115,-11.123 5.818,-15.51499 4.867,-5.73101 4.1291,-13.801 6.031,-20.683 2.6281,-8.433 1.1391,-17.35401 1.339,-26.025 0.25,0.013 0.763,0.038 1.0141,0.05 -0.934,43.67799 2.98,31.46 -4.755,44.13099 3.854,0.75101 7.758,1.301 11.686,1.664 1.089,4.454 2.14,8.909 3.328,13.338 1.051,3.754 5.3051,6.14301 4.955,10.36 0.037,4.24201 0.4499,8.496 1.827,12.55 11.349,-2.58999 23.173,-2.16499 34.709,-1.289 6.6939,10.435 16.016,18.918 25.738,26.52599 0.046,0.526 0.099,87.05801 0.1,87.58499 4.892,0.125 9.9969,-0.81299 14.714,0.97601 7.107,2.73999 14.852,0.83802 22.2719,1.53901 1.8641,-2.44001 3.7911,-4.81699 5.8681,-7.107 3.2159,2.51502 6.682,5.09201 11.011,4.79199 0.401,-84.66998 -4.531,-98.86799 17.717,-103.23999 -0.012,-2.865 -0.037,-5.731 -0.025,-8.59599 2.152,-1.37601 4.3039,-2.828 6.694,-3.829 3.2659,3.015 0.8509,8.08301 2.427,11.83701 0.964,2.127 2.24,4.091 3.228,6.21899 1.577,3.12801 1.7889,7.59501 6.081,8.03299 1.376,-1.75199 1.877,-5.05499 4.6921,-4.97999 19.738,-1.22301 7.3669,1.545 30.3299,4.97999 0.012,6.431 -0.012,12.875 0.025,19.306 5.0551,0.4 10.122,0.538 15.2021,0.58802 0.5009,18.043 -0.1131,36.09799 0.2629,54.15298 2.465,0.98801 4.9301,2.00202 7.407,3.04001 0.588,8.47101 0.35,16.96701 0.6629,25.46201 1.414,-0.013 2.84,-0.025 4.2791,-0.025 6.348,-27.48999 6.0861,-22.98599 35.585,-22.672 1.739,0.18799 4.1409,-0.125 4.917,1.91401 4.4169,10.88598 9.797,21.759 10.01,33.78299 -0.1131,4.31698 4.9549,6.707 4.5539,11.11099 0.063,26.81399 -0.475,53.63998 0.275,80.453 4.2291,0.11301 8.471,0.11301 12.725,0 0.25,-11.686 -0.35,-23.39801 0.288,-35.07199 4.842,-0.22501 9.697,-0.28799 14.552,-0.36301 0.163,-3.979 0.363,-7.945 0.651,-11.91198 5.505,0.038 11.011,0.025 16.529,0.1 0.532,60.832 -1.612,61.99701 3.1651,62.49799 0.985,-18.73001 0.1899,-143.93 0.213,-144.06 3.141,-5.60501 10.348,-3.25299 15.515,-4.55399 12.3991,-4.04599 24.863,-1.69101 28.6281,0.86301 2.9029,1.60199 4.529,4.60401 6.181,7.357 12.75,-0.81299 25.5,0.626 38.2619,0.35 1.8741,6.565 1.027,41.27799 0.9881,42.27899 8.233,-0.41299 16.479,-0.025 24.724,-0.31298 0.6379,-4.07901 1.339,-8.14499 2.34,-12.14899 4.154,5.005 3.353,12.5 8.0949,17.117 6.401,8.44501 4.031,-5.10199 4.767,72.93399 7.157,0.788 13.4759,-3.40301 20.583,-3.25299 0.6479,-19.42599 -0.993,-91.212 -0.088,-122.05999 7.307,-0.45002 14.639,-0.075 21.921,0.81298 2.4399,-3.05301 4.8051,-6.194 7.032,-9.43399 4.504,3.00299 9.785,4.27899 15.1899,4.129 0.3631,1.63901 0.751,3.27802 1.1761,4.92999 5.5179,0.063 11.0479,0.33802 16.566,0.85102 0.6379,7.03201 0.563,14.08899 0.3,21.13299 8.846,0.05 16.491,5.35501 25.3001,5.956 1.677,2.36499 3.916,4.21701 6.556,5.46798 1.3261,8.93399 0.6131,17.943 0.638,26.926 10.885,-0.5 21.771,-1.314 32.682,-0.62601 0.6159,-17.13599 -0.406,-95.64902 0.3,-135.19 7.37,-0.31299 14.7641,-0.22501 22.1591,-0.263 -0.075,-7.457 0.8509,-14.877 0.6629,-22.32201 8.0451,-0.313 16.1031,-0.05 24.1611,-0.16299 3.0279,-10.25 -0.2791,-8.49201 12.3489,-10.01 0.2,-20.17 -0.7259,-40.464 1.414,-60.547 2.743,5.83201 1.99,40.331 2.1269,60.10901 4.454,0.588 8.1081,3.116 11.261,6.16901 2.84,2.84 7.695,3.228 10.135,6.16901 1.0811,8.13299 0.3221,118 0.513,236.70999 5.03,0.138 10.072,0.138 15.1269,0.012 0.1961,-12.51401 -0.546,-97.75799 0.626,-110.17001 4.217,-0.163 8.4461,-0.388 12.6751,-0.75101 0.238,-7.35699 -1.214,-15.09 1.889,-22.04599 7.194,-0.088 14.402,-0.11301 21.609,0.18799 0.8379,7.082 0.7,14.20099 0.3379,21.30801 9.259,6.055 6.8989,-3.93399 7.0439,43.267 7.6331,-0.18799 15.2901,-0.42499 22.9351,0.17499 0.926,8.92099 0.037,17.867 0.3,26.789 4.0291,1.33899 8.271,1.927 12.3621,3.116 -0.012,5.74301 -0.375,11.48599 0,17.242 5.155,0.11301 10.323,0.10001 15.49,0.18799 -0.1179,-8.03 -0.8191,-91.47501 0.563,-99.56 7.9829,0.263 16.0649,-0.45001 24.0229,0.638 6.481,1.75202 12.8999,3.991 19.7071,4.19199 0.1001,2.39001 0.1999,4.78 0.375,7.18201 3.6159,-0.088 7.257,-0.20002 10.9099,-0.29999 0,-3.89099 -0.012,-7.78299 0.038,-11.66101 5.2929,-0.83801 10.6479,-0.801 15.9909,-0.288 0.2881,1.76401 0.6131,3.516 0.989,5.26801 4.9671,0.05 9.9471,0.075 14.939,0.075 0.2,-2.565 0.375,-5.142 0.551,-7.70801 5.43,0 10.8731,-0.17498 16.316,-0.225 0,0 0.8491,84.07699 0.375,125.57 1.7519,-0.05 3.5161,-0.088 5.3181,-0.113 0.7849,-16.509 -0.25,-177.87 0.175,-183.09 5.781,-0.388 11.574,-0.33801 17.367,-0.113 -0.314,-12.73902 -0.451,-89.89901 0.088,-99.98501 9.9719,-0.71299 19.9689,-0.25 29.9541,0.11301 0.238,-4.32899 0.075,-8.671 0.1001,-13 -0.188,-3.26601 2.7399,-5.656 2.9399,-8.821 -0.676,-14.12601 -0.4761,-28.265 -0.863,-42.416 0.3249,-3.879 -1.0259,-8.721 2.29,-11.636 13.6431,-13.969 5.7461,-5.723 8.408,-66.639999 1.3391,-1.026001 2.715,-2.064999 4.1169,-3.091 0.3249,20.057003 -0.7261,40.139004 0.113,60.183999 -0.613,6.394 7.845,8.658 7.6819,14.839 0.125,15.90301 0.2749,31.831 -0.6999,47.70901 -0.5381,4.304 5.1919,5.768 5.0549,9.87199 0.1631,7.082 -0.438,14.151 -0.375,21.246 2.177,-0.25 4.3921,-0.5 6.6189,-0.72599 0.125,-4.655 -0.313,-9.359 0.4761,-13.96401 1.852,-3.979 6.6689,-4.59199 10.2719,-6.281 5.6089,-1.786 9.0411,-7.36301 25.5501,-4.27901 12.501,4.46899 1.3181,-3.96201 5.2549,242.11999 13.238,-0.075 26.501,-0.263 39.739,0.375 0.438,16.59101 -0.363,33.19501 0.125,49.79901 1.2891,0.20002 2.5901,0.413 3.9289,0.62601 -0.2749,-8.47101 -0.2251,-16.95401 -0.2251,-25.42499 0.9261,0.025 2.7649,0.063 3.678,0.075 0.05,9.04599 -0.2629,18.07998 0.088,27.11401 19.0691,0.97501 8.897,0.12799 23.398,-3.30301 1.7129,-27.36999 -2.918,-138.48999 3.0149,-141.28998 5.4299,-0.78799 10.986,-0.45001 16.479,-0.80099 0.3379,-1.426 0.7009,-2.86499 1.101,-4.29199 4.167,-0.33802 7.845,-2.23999 10.6101,-5.39301 1.576,1.65201 3.1531,3.30301 4.7801,4.94199 23.6211,-1.646 23.466,1.889 33.8449,-2.327 2.865,1.11401 5.8059,2.077 8.7959,2.953 0.7881,1.48902 1.5769,3.00299 2.6031,4.404 3.103,0.91299 3.541,-2.978 4.8799,-4.88001 0.9008,-0.063 1.8391,-0.125 2.8149,-0.18799 0.3879,1.47602 0.801,2.965 1.239,4.44199 2.2771,0.27499 4.5669,0.55099 6.894,0.83801 0.5459,9.44699 0.325,85.67499 0.138,97.25702 1.6521,-0.013 3.3279,-0.038 5.042,-0.075 0.7261,-6.444 -2.0901,-14.51401 3.341,-19.482 3.7161,-4.21701 10.21,-6.281 11.4991,-12.32501 0.5249,-6.64401 1.164,-13.68799 -1.376,-20.00699 1.314,-1.61401 2.7649,-3.15301 3.8291,-4.98001 0.7261,-4.20401 -0.2749,-8.64599 1.0891,-12.712 3.0029,-3.19101 7.457,-4.267 11.1231,-6.51902 2.4021,-7.945 -1.4891,-16.24099 0.6508,-24.28601 1.326,-5.57998 -2.8149,-10.05999 -4.604,-14.96499 1.2261,-3.57801 2.8401,-7.582 6.106,-9.76001 8.2771,-0.18799 5.9541,2.15399 5.9929,202.44 H -0.00202727 V 276.05307 c 1.88899997,1.65201 3.72900007,3.54099 6.15600017,4.40399 1.9519996,-0.81299 3.7290001,-1.97699 5.5430001,-3.02801 1.301,1.802 2.54,3.66598 3.954,5.393 3.990999,-0.57599 6.368999,-4.479 9.383998,-6.794 4.454001,4.85501 10.110001,8.15799 15.865002,11.21099 1.563999,3.66599 0.751,7.94501 1.264,11.862 1.852001,-0.46301 3.929001,-0.85101 4.716999,-2.83999 4.278999,-8.08301 9.522,-16.20301 9.459,-25.70001 0.5,0.375 1.514,1.126 2.027,1.501 1.376,9.05899 5.417999,17.34201 9.847004,25.275 19.620003,35.70199 12.317001,19.13 14.113999,35.47201 1.601997,0.33801 3.216003,0.663 4.817001,0.97602 0.781998,9.30899 0.382004,62.535 0.25,71.57 2.139999,0.33802 4.278999,0.663 6.418999,1.013 0.888,1.36402 1.250999,3.228 2.714996,4.142 4.603999,0.388 9.246999,0.20001 13.863999,0.288 0.088,-3.866 -0.038,-7.745 0.313,-11.611 0.4,-4.20401 2.415,-8.108 2.465,-12.362 0.45,-7.93301 -1.376,-16.341 2.277,-23.77301 1.051,-3.52798 4.717,-4.81698 7.67,-6.319 -1.82801,-24.819 10.52499,-36.268 14.477,-35.43499 6.957,0.888 12.60001,6.06799 16.116,11.89898 2.61501,4.71701 7.282,7.67002 10.498,11.887 1.076,4.73001 0.713,9.65899 1.25101,14.46399 5.42999,-0.68799 10.298,-3.97901 15.878,-3.54099 13.15,-0.14999 26.32601,0.29999 39.43801,-0.52499 0.813,-9.409 -1.752,-19.857 3.341,-28.353 1.83901,-0.97601 3.89101,-1.426 5.856,-2.052 0.762,-20.85599 3.12601,-3.345 3.353,-32.26902 1.552,-1.23901 3.116,-2.46499 4.66701,-3.691 -0.425,-7.42002 4.34199,-14.28901 1.88901,-21.67099 H 243.06 c -2.377,7.38198 2.265,14.289 1.864,21.69601 1.526,1.23901 3.065,2.465 4.604,3.70401 0.025,6.10599 -0.951,12.46201 1.226,18.34299 1.289,3.62899 1.339,7.54501 2.502,11.19799 1.70199,3.46601 3.866,6.719 4.96701,10.46 2.578,7.044 0.58801,14.652 1.71399,21.90899 3.41299,6 2.03699,3.60901 30.367,3.56601 0.05,-34.18298 -0.32501,-68.367 0.163,-102.54001 2.35199,-0.225 4.70498,-0.438 7.057,-0.66299 0.263,-2.22701 0.52601,-4.442 0.788,-6.65601 3.854,-1.013 7.70801,-2.002 11.63598,-2.66499 0.48801,-1.401 0.96302,-2.80299 1.439,-4.192 2.23999,-1.476 5.57999,-2.377 6.11801,-5.38001 4.017,-13.755 7.84,-5.36099 16.44101,-5.81799 8.095,-0.23801 16.39099,1.38901 24.23599,-1.351 5.293,-1.664 6.957,5.105 7.50699,8.959 3.95401,0.263 7.93302,0.388 11.91199,0.42501 3.366,4.192 2.703,9.60899 2.62799,14.61399 2.48999,0 4.98001,0 7.47,-0.012 0.36301,-1.577 0.71301,-3.14101 1.064,-4.71699 6.544,0.375 13.238,-0.62601 19.707,0.475 3.49099,2.452 6.98199,5.14301 11.52398,4.942 -0.729,31.689 -0.78201,159.82001 -0.263,174.73999 2.19001,0.29999 4.404,0.58802 6.61899,0.87601 0.68799,1.12601 1.37601,2.25201 2.077,3.37799 5.75601,1.664 11.48599,4.27899 17.642,3.078 -0.088,-44.71899 0.475,-89.43698 -0.063,-134.16 4.129,-2.315 8.11999,-4.88 11.91199,-7.72 4.066,3.40298 8.871,5.656 13.43798,8.28299 0.96601,1.67999 0.38199,68.04999 0.375,69.05499 6.857,-0.46301 13.73801,-0.225 20.62,-0.14999 0.11301,4.229 -0.35001,8.54599 0.475,12.737 1.38901,2.19 4.267,3.716 4.129,6.61898 0.275,5.193 0.025,10.39802 0.35001,15.59 8.04501,0.33801 16.091,0.5 24.13598,0.4 -0.20001,-24.249 0.13801,-48.49701 -0.20001,-72.74601 4.84198,-0.088 9.69702,-0.113 14.552,-0.1 0.33802,-6.68201 -0.40002,-13.36301 -0.075,-20.04502 1.83899,-0.363 3.69098,-0.738 5.555,-1.11401 -1.69098,-114.08 1.64501,-49.05301 2.91497,-103.45999 9.50898,-3.791 20.745,-4.204 30.06702,0.325 1.21399,6.957 0.20001,14.06399 0.638,21.08299 0.17499,3.44099 2.20203,6.444 2.47699,9.87199 0.45001,7.11901 -0.138,14.26399 0.15002,21.39601 0.15003,5.49301 2.84003,10.54801 2.92798,16.06601 0.46302,11.849 -0.138,23.711 0.16303,35.56 1.88897,-0.063 3.77899,-0.125 5.67999,-0.21301 0.16303,-5.568 0.27502,-11.14801 0.23798,-16.71601 3.16601,-0.18798 6.33099,-0.35 9.49701,-0.526 0.21301,-2.94 0.11297,-5.94299 0.81298,-8.82101 6.13202,-11.965 3.98603,17.33899 4.26703,-115.82001 3.74103,-1.226 7.32001,-2.92799 11.13599,-3.916 2.72803,-0.088 5.35498,1.064 8.10797,0.888 7.357,-1.12601 14.71399,0.888 22.10901,0.05 0.27502,2.59 0.62598,5.168 1.05102,7.73301 1.17603,-1.67701 2.27698,-3.416 3.30298,-5.20501 3.86603,-0.088 7.745,-0.05 11.63599,-0.113 0.17499,-13.275 -1.05103,-26.56301 0.16302,-39.82601 2.42701,-0.988 4.86701,-1.95199 7.33197,-2.87799 0.40003,-2.27701 0.78803,-4.55401 1.23902,-6.807 5.29303,-1.101 10.51001,-2.515 15.76501,-3.766 1.30402,-25.463 -0.17199,-51.013003 1.02899,-76.488001 l 0.003,-0.009 z" /></g></g></g></g><path
       id="path174"
       style="fill:#ffffff;fill-opacity:0;fill-rule:nonzero;stroke:none"
       d="M 54.783836,-793.38043 H 285.18384 v 101.088 H 54.783836 Z" /><path
       id="path176"
       style="fill:#ffffff;fill-opacity:0;fill-rule:nonzero;stroke:none"
       d="m -282.88794,-748.6973 h 230.4 v 41.36768 h -230.4 z" /></g></svg>