<svg xmlns:dc="http://purl.org/dc/elements/1.1/" xmlns:cc="http://creativecommons.org/ns#"
    xmlns:rdf="http://www.w3.org/1999/02/22-rdf-syntax-ns#" xmlns:svg="http://www.w3.org/2000/svg"
    xmlns="http://www.w3.org/2000/svg" viewBox="0 0 1920 1080" height="1080" width="1920"
    xml:space="preserve" id="svg2" version="1.1"><metadata id="metadata8" fill="#ffffff"><rdf:rdf fill="#ffffff"><cc:work rdf:about="" fill="#ffffff"><dc:format fill="#ffffff">image/svg+xml</dc:format><dc:type rdf:resource="http://purl.org/dc/dcmitype/StillImage" fill="#ffffff"></dc:type></cc:work></rdf:rdf></metadata><defs id="defs6" fill="#ffffff"><clipPath id="clipPath14" clipPathUnits="userSpaceOnUse" fill="#ffffff"><path id="path12" d="M 0,7.920007 H 1440 V 817.92 H 0 Z" fill="#ffffff" data-index="0"></path></clipPath><clipPath id="clipPath24" clipPathUnits="userSpaceOnUse" fill="#ffffff"><path style="clip-rule:evenodd" id="path22" d="M 0,0 H 6000 V 3406.25 H 0 Z" fill="#ffffff" data-index="1"></path></clipPath><clipPath id="clipPath36" clipPathUnits="userSpaceOnUse" fill="#ffffff"><path style="clip-rule:evenodd" id="path34" d="M 1409.954,219.69299 H 4592.2621 V 1616.975 H 1409.954 Z" fill="#ffffff" data-index="2"></path></clipPath><clipPath id="clipPath48" clipPathUnits="userSpaceOnUse" fill="#ffffff"><path style="clip-rule:evenodd" id="path46" d="m 1409.954,700.2215 h 152.7508 V 1616.975 H 1409.954 Z" fill="#ffffff" data-index="3"></path></clipPath><clipPath id="clipPath60" clipPathUnits="userSpaceOnUse" fill="#ffffff"><path style="clip-rule:evenodd" id="path58" d="m 1922.3057,697.03918 h 305.5015 V 1616.975 h -305.5015 z" fill="#ffffff" data-index="4"></path></clipPath><clipPath id="clipPath72" clipPathUnits="userSpaceOnUse" fill="#ffffff"><path style="clip-rule:evenodd" id="path70" d="m 3386.1675,926.16541 h 206.8501 V 1616.975 h -206.8501 z" fill="#ffffff" data-index="5"></path></clipPath><clipPath id="clipPath84" clipPathUnits="userSpaceOnUse" fill="#ffffff"><path style="clip-rule:evenodd" id="path82" d="m 4385.4126,700.2215 h 206.8496 v 916.7535 h -206.8496 z" fill="#ffffff" data-index="6"></path></clipPath><clipPath id="clipPath96" clipPathUnits="userSpaceOnUse" fill="#ffffff"><path style="clip-rule:evenodd" id="path94" d="m 2829.2637,910.25385 h 206.8501 V 1616.975 h -206.8501 z" fill="#ffffff" data-index="7"></path></clipPath><clipPath id="clipPath108" clipPathUnits="userSpaceOnUse" fill="#ffffff"><path style="clip-rule:evenodd" id="path106" d="M 3647.1167,700.2215 H 3987.624 V 1616.975 H 3647.1167 Z" fill="#ffffff" data-index="8"></path></clipPath><clipPath id="clipPath120" clipPathUnits="userSpaceOnUse" fill="#ffffff"><path style="clip-rule:evenodd" id="path118" d="M 2498.3035,601.56995 H 2708.336 V 1616.975 h -210.0325 z" fill="#ffffff" data-index="9"></path></clipPath><clipPath id="clipPath132" clipPathUnits="userSpaceOnUse" fill="#ffffff"><path style="clip-rule:evenodd" id="path130" d="M 1409.954,849.78998 H 4592.2621 V 1616.975 H 1409.954 Z" fill="#ffffff" data-index="10"></path></clipPath><clipPath id="clipPath144" clipPathUnits="userSpaceOnUse" fill="#ffffff"><path style="clip-rule:evenodd" id="path142" d="M 1408.6792,219.69299 H 4592.9209 V 1617.8664 H 1408.6792 Z" fill="#ffffff" data-index="11"></path></clipPath><clipPath id="clipPath156" clipPathUnits="userSpaceOnUse" fill="#ffffff"><path style="clip-rule:evenodd" id="path154" d="M 1409.954,537.92377 H 4592.2621 V 1616.975 H 1409.954 Z" fill="#ffffff" data-index="12"></path></clipPath><clipPath id="clipPath168" clipPathUnits="userSpaceOnUse" fill="#ffffff"><path style="clip-rule:evenodd" id="path166" d="M 1409.954,1759.026 H 4592.2621 V 3156.3079 H 1409.954 Z" fill="#ffffff" data-index="13"></path></clipPath><clipPath id="clipPath180" clipPathUnits="userSpaceOnUse" fill="#ffffff"><path style="clip-rule:evenodd" id="path178" d="m 1409.954,2239.5544 h 152.7508 v 916.7534 H 1409.954 Z" fill="#ffffff" data-index="14"></path></clipPath><clipPath id="clipPath192" clipPathUnits="userSpaceOnUse" fill="#ffffff"><path style="clip-rule:evenodd" id="path190" d="m 1922.3057,2236.3721 h 305.5015 v 919.9358 h -305.5015 z" fill="#ffffff" data-index="15"></path></clipPath><clipPath id="clipPath204" clipPathUnits="userSpaceOnUse" fill="#ffffff"><path style="clip-rule:evenodd" id="path202" d="m 3386.1675,2465.4983 h 206.8501 v 690.8096 h -206.8501 z" fill="#ffffff" data-index="16"></path></clipPath><clipPath id="clipPath216" clipPathUnits="userSpaceOnUse" fill="#ffffff"><path style="clip-rule:evenodd" id="path214" d="m 4385.4126,2239.5544 h 206.8496 v 916.7534 h -206.8496 z" fill="#ffffff" data-index="17"></path></clipPath><clipPath id="clipPath228" clipPathUnits="userSpaceOnUse" fill="#ffffff"><path style="clip-rule:evenodd" id="path226" d="m 2829.2637,2449.5869 h 206.8501 v 706.7209 h -206.8501 z" fill="#ffffff" data-index="18"></path></clipPath><clipPath id="clipPath240" clipPathUnits="userSpaceOnUse" fill="#ffffff"><path style="clip-rule:evenodd" id="path238" d="m 3647.1167,2239.5544 h 340.5073 v 916.7534 h -340.5073 z" fill="#ffffff" data-index="19"></path></clipPath><clipPath id="clipPath252" clipPathUnits="userSpaceOnUse" fill="#ffffff"><path style="clip-rule:evenodd" id="path250" d="m 2498.3035,2140.9028 h 210.0325 v 1015.405 h -210.0325 z" fill="#ffffff" data-index="20"></path></clipPath><clipPath id="clipPath264" clipPathUnits="userSpaceOnUse" fill="#ffffff"><path style="clip-rule:evenodd" id="path262" d="m 1409.954,2389.123 h 3182.3081 v 767.1848 H 1409.954 Z" fill="#ffffff" data-index="21"></path></clipPath><clipPath id="clipPath276" clipPathUnits="userSpaceOnUse" fill="#ffffff"><path style="clip-rule:evenodd" id="path274" d="M 1408.6792,1759.026 H 4592.9209 V 3157.1995 H 1408.6792 Z" fill="#ffffff" data-index="22"></path></clipPath><clipPath id="clipPath288" clipPathUnits="userSpaceOnUse" fill="#ffffff"><path style="clip-rule:evenodd" id="path286" d="m 1409.954,2077.2568 h 3182.3081 v 1079.051 H 1409.954 Z" fill="#ffffff" data-index="23"></path></clipPath></defs><g clip-path="url(#clipPath14)" transform="matrix(1.3333333,0,0,-1.3333333,0,1090.56)" id="g10"><g transform="matrix(0.23999999,0,0,-0.23999999,0,817.91998)" id="g16"><g id="g18"><g clip-path="url(#clipPath24)" id="g20"><g transform="scale(3.125)" id="g26"></g></g></g><g id="g30"><g clip-path="url(#clipPath36)" id="g32"><g transform="matrix(3.1823084,0,0,3.1823084,1409.954,219.69295)" id="g38"><path id="path40" style="fill: rgb(255, 255, 255); fill-opacity: 1; fill-rule: nonzero; opacity: 1; visibility: hidden;" d="m 997.76563,212.33984 v -48.41015 c -4.56641,0 -8.26954,-3.70313 -8.26954,-8.27344 v -4.07813 c -2.23437,0 -4.05078,-1.8125 -4.05078,-4.05078 v -10.08593 h 3.97657 v -5.40235 h -1.55079 v -4.6914 h -1.375 L 974.26172,117.14453 V 86.496094 h -1.10156 V 71.859375 h -0.89453 V 61.019531 h -1.17188 v 10.839844 h -0.89844 v 14.636719 h -1.09765 v 30.648436 l -12.23438,10.20313 h -1.3789 v 4.6914 h -1.55079 v 5.40235 h 3.97657 v 10.08593 c 0,2.23828 -1.8125,4.05078 -4.05078,4.05078 v 4.07813 c 0,2.98047 -1.57813,5.58203 -3.94141,7.03906 v -6.95703 h -7.53906 v -11.78125 h -33.58594 v 11.78125 H 901.25 v 47.35547 h -25.34375 v 17.13672 H 852.14063 V 129.23828 H 841.88281 V 79.21875 h -8.0039 V 48.269531 h -11.4336 V 79.21875 h -8.0039 v 50.01953 H 804.18359 V 264.56641 H 765.125 v -90.17969 h -33.39844 v -63.58984 l -11.43359,13.60156 v 17.34765 H 704.28516 V 157.25 h -24.98047 v -47.35547 h -7.53906 V 98.113281 H 653.10938 V 0.00390625 L 625.66797,30.953125 v 29.503906 c 0,11.328125 -9.18359,20.515625 -20.51172,20.515625 v 85.523434 h -19.27344 v -5.48047 h -8.55078 V 120.99219 H 567.07422 V 70.972656 h -8.00391 V 40.023438 L 547.63672,53.625 v 17.347656 h -8.00391 V 120.99219 H 529.375 v 92.3125 H 509.30859 V 151.51953 H 499.05078 V 136.19922 H 482.30469 V 92.363281 h -2.27735 V 62.035156 h -1.86328 V 39.574219 h -2.42187 v 22.460937 h -1.86328 v 30.328125 h -2.27735 v 43.835939 h -16.74609 v 15.32031 h -10.25781 v 50.03516 h -2.70313 v -32.46485 h -5.17187 v -8.07422 h -23.02735 v 5.48047 h -28.68359 v 23.30469 h -16.07031 v -79.90625 h -7.53907 V 98.113281 h -33.58593 v 11.781249 h -7.54297 V 157.25 h -25.33985 v 17.13672 h -60.48046 v 90.17969 h -3.46094 V 95.117188 h -10.25781 v -9.71875 H 187.0625 v 9.71875 H 166.28125 V 220.23047 h -17.85547 v -90.99219 h -18.69922 l -25.23047,-20.17578 -20.781246,9.71484 v 25.17969 h -18.5 V 56.335938 L 23.976563,81.390625 V 123.92969 L 2.230469,109.0625 V 212.33984 H 0 V 439.07813 H 999.57813 V 212.33984 h -1.8125" data-index="25"></path></g></g></g><g id="g42"><g clip-path="url(#clipPath48)" id="g44"><g transform="matrix(3.1823084,0,0,3.1823084,1409.954,219.69295)" id="g50"></g></g></g><g id="g54"><g clip-path="url(#clipPath60)" id="g56"><g transform="matrix(3.1823084,0,0,3.1823084,1409.954,219.69295)" id="g62"><path id="path64" style="fill: rgb(255, 255, 255); fill-opacity: 1; fill-rule: nonzero; opacity: 1; visibility: hidden;" d="m 244.98438,185.49609 h -9.02735 v -19.5664 L 223.0625,150.58984 v 34.90625 h -9.02734 v 56.41407 h -11.57032 v 21.16015 C 194.50391,260.25 188.78906,252.67578 188.78906,243.74609 v -29.5039 l -27.4414,-30.94922 v 255.78516 h 95.20312 V 241.91016 h -11.5664 v -56.41407" data-index="27"></path></g></g></g><g id="g66"><g clip-path="url(#clipPath72)" id="g68"><g transform="matrix(3.1823084,0,0,3.1823084,1409.954,219.69295)" id="g74"></g></g></g><g id="g78"><g clip-path="url(#clipPath84)" id="g80"><g transform="matrix(3.1823084,0,0,3.1823084,1409.954,219.69295)" id="g86"><path id="path88" style="fill: rgb(255, 255, 255); fill-opacity: 1; fill-rule: nonzero; opacity: 1; visibility: hidden;" d="m 957.53516,180.60156 v 70.50782 l -22.2461,15.21093 V 439.07813 H 1000 V 151.56641 l -42.46484,29.03515" data-index="29"></path></g></g></g><g id="g90"><g clip-path="url(#clipPath96)" id="g92"><g transform="matrix(3.1823084,0,0,3.1823084,1409.954,219.69295)" id="g98"></g></g></g><g id="g102"><g clip-path="url(#clipPath108)" id="g104"><g transform="matrix(3.1823084,0,0,3.1823084,1409.954,219.69295)" id="g110"><path id="path112" style="fill: rgb(255, 255, 255); fill-opacity: 1; fill-rule: nonzero; opacity: 1; visibility: hidden;" d="m 788.66016,182.51563 h -16.00782 v -17.35157 l -11.43359,-13.59765 v 67.13672 l -13.57422,-6.34766 -25.23047,20.17578 H 703.71484 V 439.07813 H 809.17578 V 232.53125 h -20.51562 v -50.01562" data-index="31"></path></g></g></g><g id="g114"><g clip-path="url(#clipPath120)" id="g116"><g transform="matrix(3.1823084,0,0,3.1823084,1409.954,219.69295)" id="g122"></g></g></g><g id="g126"><g clip-path="url(#clipPath132)" id="g128"><g transform="matrix(3.1823084,0,0,3.1823084,1409.954,219.69295)" id="g134"><path id="path136" style="fill: rgb(255, 255, 255); fill-opacity: 1; fill-rule: nonzero; opacity: 1; visibility: hidden;" d="m 965.98438,312.36719 v 23.30469 h -16.06641 v -79.90625 h -7.53906 v -11.78516 h -33.58594 v 11.78516 H 901.25 v 47.35156 h -25.34375 v 17.14062 h -60.47656 v 44.33594 H 765.125 v -90.18359 h -60.47656 v -17.13672 h -25.34375 v -47.35547 h -7.53906 v -11.78125 h -33.58985 v 11.78125 h -7.53906 v 79.91016 h -16.06641 v -23.3086 h -28.6875 v -5.48047 h -23.02734 v 8.07813 h -5.16797 v 32.46484 h -17.375 v 11.7461 h -81.04687 v -11.7461 h -17.3711 v -32.46484 h -5.17187 v -8.07813 h -23.02735 v 5.48047 h -28.68359 v 23.3086 h -16.07031 v -79.91016 h -7.53907 v -11.78125 h -33.58593 v 11.78125 h -7.54297 v 47.35547 h -25.33985 v 17.13672 h -60.48046 v 90.18359 H 184.14844 V 320.25781 H 123.67187 V 303.11719 H 98.328125 V 255.76563 H 90.789063 V 243.98047 H 57.203125 v 11.78516 h -7.542969 v 79.90625 H 33.59375 V 312.36719 H 0 V 439.07813 H 999.57813 V 312.36719 h -33.59375" data-index="33"></path></g></g></g><g id="g138"><g clip-path="url(#clipPath144)" id="g140"><g transform="matrix(3.1823084,0,0,3.1823084,1409.954,219.69295)" id="g146"></g></g></g><g id="g150"><g clip-path="url(#clipPath156)" id="g152"><g transform="matrix(3.1823084,0,0,3.1823084,1409.954,219.69295)" id="g158"><path id="path160" style="fill: rgb(0, 4, 25); fill-opacity: 1; fill-rule: nonzero; opacity: 1;" d="m 1000,353.25781 h -34.01562 v 23.3086 h -16.06641 v -79.91016 h -7.53906 V 284.875 h -33.58594 v 11.78125 H 901.25 v 47.35547 h -25.34375 v 17.13672 H 860.61719 V 246.41406 l -64.71094,44.25 V 405.48438 H 765.125 V 315.30469 H 704.64844 V 298.16797 H 679.30469 V 250.8125 h -7.53906 v -11.78125 h -33.58985 v 11.78125 h -7.53906 v 79.90625 h -16.06641 v -23.30469 h -28.6875 v -5.48437 h -10.23437 v -46.06641 c -5.66406,0 -10.25391,-4.59375 -10.25391,-10.25781 v -5.05859 c -2.77734,0 -5.02344,-2.25 -5.02344,-5.02344 v -12.51172 h 4.92969 v -6.69531 h -1.92187 v -5.82422 h -1.71094 l -15.17188,-12.65235 v -38.00781 h -1.36328 v -18.15234 h -1.11328 v -13.44532 h -1.45312 v 13.44532 h -1.11328 v 18.15234 h -1.36329 v 38.00781 l -15.17187,12.65235 h -1.70703 v 5.82422 h -1.92188 v 6.69531 h 4.92969 v 12.51172 c 0,2.77344 -2.25,5.02344 -5.02344,5.02344 v 5.05859 c 0,5.66406 -4.59375,10.25781 -10.25781,10.25781 v 98.35938 h -53.30078 v -11.75 h -17.375 v -32.46485 h -5.16797 v -8.07812 h -23.02734 v 5.48437 h -27.05469 v 23.30469 H 368.94141 V 250.8125 h -7.53907 v -11.78125 h -33.58593 v 11.78125 h -7.54297 v 47.35547 h -25.33985 v 17.13672 h -25.80468 v 20.76953 h -35.91797 v -42.08594 h -17.375 v -32.46484 h -5.16797 v -8.07813 h -23.02734 v 8.07813 h -5.16797 v 54.78125 h -11.01563 v -15.97656 h -10.10937 v -87.67969 h -10.25782 v -15.32031 h -16.74609 v -43.83594 h -2.28125 v -30.32813 h -1.85938 v -22.46093 h -2.42578 v 22.46093 h -1.85937 v 30.32813 h -2.27734 v 43.83594 h -16.75 v 15.32031 H 96.636719 v 84.00781 H 90.789063 V 284.875 H 57.203125 v 11.78125 h -7.542969 v 79.91016 H 33.59375 v -23.3086 H 0 v 85.82032 h 1000 v -85.82032" data-index="35"></path></g></g></g><g id="g162"><g clip-path="url(#clipPath168)" id="g164"><g transform="matrix(3.1823084,0,0,3.1823084,1409.954,1759.0259)" id="g170"></g></g></g><g id="g174"><g clip-path="url(#clipPath180)" id="g176"><g transform="matrix(3.1823084,0,0,3.1823084,1409.954,1759.0259)" id="g182"><path id="path184" style="fill: rgb(255, 255, 255); fill-opacity: 1; fill-rule: nonzero; opacity: 1; visibility: hidden;" d="M 37.699219,182.51563 H 29.695313 V 151.56641 H 18.261719 v 30.94922 h -8.003906 v 50.01562 H 0 V 439.07813 H 47.957031 V 232.53125 H 37.699219 v -50.01562" data-index="37"></path></g></g></g><g id="g186"><g clip-path="url(#clipPath192)" id="g188"><g transform="matrix(3.1823084,0,0,3.1823084,1409.954,1759.0259)" id="g194"></g></g></g><g id="g198"><g clip-path="url(#clipPath204)" id="g200"><g transform="matrix(3.1823084,0,0,3.1823084,1409.954,1759.0259)" id="g206"><path id="path208" style="fill: rgb(255, 255, 255); fill-opacity: 1; fill-rule: nonzero; opacity: 1; visibility: hidden;" d="m 665.07813,222.81641 h -33.67188 v 9.71484 h -10.25781 v 206.54688 h 64.71094 V 232.53125 h -20.78125 v -9.71484" data-index="39"></path></g></g></g><g id="g210"><g clip-path="url(#clipPath216)" id="g212"><g transform="matrix(3.1823084,0,0,3.1823084,1409.954,1759.0259)" id="g218"></g></g></g><g id="g222"><g clip-path="url(#clipPath228)" id="g224"><g transform="matrix(3.1823084,0,0,3.1823084,1409.954,1759.0259)" id="g230"><path id="path232" style="fill: rgb(255, 255, 255); fill-opacity: 1; fill-rule: nonzero; opacity: 1; visibility: hidden;" d="m 500.68359,222.27734 v -5.0625 h -44.19921 v 5.0625 c 0,5.66407 -4.59375,10.25391 -10.25782,10.25391 V 439.07813 H 510.9375 V 232.53125 c -5.66406,0 -10.25391,-4.58984 -10.25391,-10.25391" data-index="41"></path></g></g></g><g id="g234"><g clip-path="url(#clipPath240)" id="g236"><g transform="matrix(3.1823084,0,0,3.1823084,1409.954,1759.0259)" id="g242"></g></g></g><g id="g246"><g clip-path="url(#clipPath252)" id="g248"><g transform="matrix(3.1823084,0,0,3.1823084,1409.954,1759.0259)" id="g254"><path id="path256" style="fill: rgb(255, 255, 255); fill-opacity: 1; fill-rule: nonzero; opacity: 1; visibility: hidden;" d="m 397.28516,217.21484 h -16.7461 v -43.83593 h -2.27734 v -30.32813 h -1.86328 v -22.46094 h -2.42188 v 22.46094 h -1.86328 v 30.32813 h -2.27734 v 43.83593 h -16.7461 v 15.31641 h -10.25781 v 206.54688 h 64.71094 V 232.53125 h -10.25781 v -15.31641" data-index="43"></path></g></g></g><g id="g258"><g clip-path="url(#clipPath264)" id="g260"><g transform="matrix(3.1823084,0,0,3.1823084,1409.954,1759.0259)" id="g266"></g></g></g><g id="g270"><g clip-path="url(#clipPath276)" id="g272"><g transform="matrix(3.1823084,0,0,3.1823084,1409.954,1759.0259)" id="g278"><path id="path280" style="fill: rgb(255, 255, 255); fill-opacity: 1; fill-rule: nonzero; opacity: 1; visibility: hidden;" d="m 870.07031,180.92188 v -15.32032 h -16.74609 v -43.83593 h -2.27734 V 91.4375 H 849.1875 V 68.976563 h -2.42578 V 91.4375 h -1.86328 v 30.32813 h -2.27735 v 43.83593 H 825.875 v 15.32032 h -10.25781 v 174.8164 h 64.71094 v -174.8164 h -10.25782" data-index="45"></path></g></g></g><g id="g282"><g clip-path="url(#clipPath288)" id="g284"><g transform="matrix(3.1823084,0,0,3.1823084,1409.954,1759.0259)" id="g290"><path id="path292" style="fill: rgb(0, 4, 25); fill-opacity: 1; fill-rule: nonzero; opacity: 1;" d="m 1000,353.25781 h -34.01562 v 23.3086 h -16.06641 v -79.91016 h -7.53906 V 284.875 h -33.58594 v 11.78125 H 901.25 v 47.35547 h -25.34375 v 17.13672 H 860.61719 V 246.41406 l -64.71094,44.25 V 405.48438 H 765.125 V 315.30469 H 704.64844 V 298.16797 H 679.30469 V 250.8125 h -7.53906 v -11.78125 h -33.58985 v 11.78125 h -7.53906 v 79.90625 h -16.06641 v -23.30469 h -28.6875 v -5.48437 h -10.23437 v -46.06641 c -5.66406,0 -10.25391,-4.59375 -10.25391,-10.25781 v -5.05859 c -2.77734,0 -5.02344,-2.25 -5.02344,-5.02344 v -12.51172 h 4.92969 v -6.69531 h -1.92187 v -5.82422 h -1.71094 l -15.17188,-12.65235 v -38.00781 h -1.36328 v -18.15234 h -1.11328 v -13.44532 h -1.45312 v 13.44532 h -1.11328 v 18.15234 h -1.36329 v 38.00781 l -15.17187,12.65235 h -1.70703 v 5.82422 h -1.92188 v 6.69531 h 4.92969 v 12.51172 c 0,2.77344 -2.25,5.02344 -5.02344,5.02344 v 5.05859 c 0,5.66406 -4.59375,10.25781 -10.25781,10.25781 v 98.35938 h -53.30078 v -11.75 h -17.375 v -32.46485 h -5.16797 v -8.07812 h -23.02734 v 5.48437 h -27.05469 v 23.30469 H 368.94141 V 250.8125 h -7.53907 v -11.78125 h -33.58593 v 11.78125 h -7.54297 v 47.35547 h -25.33985 v 17.13672 h -25.80468 v 20.76953 h -35.91797 v -42.08594 h -17.375 v -32.46484 h -5.16797 v -8.07813 h -23.02734 v 8.07813 h -5.16797 v 54.78125 h -11.01563 v -15.97656 h -10.10937 v -87.67969 h -10.25782 v -15.32031 h -16.74609 v -43.83594 h -2.28125 v -30.32813 h -1.85938 v -22.46093 h -2.42578 v 22.46093 h -1.85937 v 30.32813 h -2.27734 v 43.83594 h -16.75 v 15.32031 H 96.636719 v 84.00781 H 90.789063 V 284.875 H 57.203125 v 11.78125 h -7.542969 v 79.91016 H 33.59375 v -23.3086 H 0 v 85.82032 h 1000 v -85.82032" data-index="46"></path></g></g></g></g><path id="path294" style="fill:#ffffff;fill-opacity:0;fill-rule:nonzero;stroke:none" d="m -384.17993,-936.599 h 1089.9701 v 478.2244 h -1089.9701 z" data-index="47"></path><path id="path296" style="fill:#ffffff;fill-opacity:0;fill-rule:nonzero;stroke:none" d="m -384.17993,-1463.4083 h 1089.9701 v 478.2244 h -1089.9701 z" data-index="48"></path></g></svg>